# xmcd
#
# Track frame offsets:
#	150
#	14287
#	26377
#	40760
#	58182
#	72660
#	87737
#	106617
#	121675
#	139072
#	153017
#	166317
#	180210
#	196217
#
# Disc length: 2837 seconds
#
# Revision: 0
# Processed by: cddbd v1.4PL0 Copyright (c) Steve Scherf et al.
# Submitted via: audiograbber 1.81.02
#
DISCID=aa0b130e
DTITLE=Blandade - Sverriges bästa dansband 12
DYEAR=2001
DGENRE=Dance
TTITLE0=Blackjack - Får Jag Låna Din Fru Ikväll
TTITLE1=Candela - Steg för Steg
TTITLE2=Vikingarna  - Att älska någon så
TTITLE3=Thor Görans - Älskar du mig
TTITLE4=Streaplers - Du ska få en förklaring
TTITLE5=Barbados - Vi kan nå himlen
TTITLE6=Christina Lindberg - Ännu en dans
TTITLE7=Hjältarna - När vi andas tillsammans
TTITLE8=Lasse Berghagen - Visst var det kärlek jag fick
TTITLE9=Alf robertsson - Riv inte vårt kvarter
TTITLE10=Lotta Engbergs - Bang En Boomerang
TTITLE11=Berths Idoffs - Vem ska man fråga
TTITLE12=Kellys - Som sommaren för mig
TTITLE13=Sven-Ingvars - Att just nu idag
EXTD=
EXTT0=
EXTT1=
EXTT2=
EXTT3=
EXTT4=
EXTT5=
EXTT6=
EXTT7=
EXTT8=
EXTT9=
EXTT10=
EXTT11=
EXTT12=
EXTT13=
PLAYORDER=
